<?xml version="1.0" encoding="UTF-8" standalone="no"?>
<svg xmlns:rdf="http://www.w3.org/1999/02/22-rdf-syntax-ns#" xmlns="http://www.w3.org/2000/svg" height="320" width="320" version="1.1" xmlns:cc="http://creativecommons.org/ns#" xmlns:xlink="http://www.w3.org/1999/xlink" viewBox="0 0 320 320.00001" xmlns:dc="http://purl.org/dc/elements/1.1/">
 <defs>
  <linearGradient id="a">
   <stop stop-color="#ff6060" offset="0"/>
   <stop stop-color="#fff" offset="1"/>
  </linearGradient>
  <linearGradient id="c" y2="892" xlink:href="#a" gradientUnits="userSpaceOnUse" x2="320" gradientTransform="translate(-1.05e3 -732)" y1="892"/>
  <linearGradient id="b" y2="892" xlink:href="#a" gradientUnits="userSpaceOnUse" x2="320" gradientTransform="matrix(.793 0 0 .793 750 -548)" y1="892"/>
 </defs>
 <g transform="translate(0 -732)">
  <rect stroke-linejoin="round" transform="rotate(-90)" rx="39.4" ry="39.4" height="315" width="315" stroke="#f00" y="2.46" x="-1.05e3" stroke-width="4.92" fill="url(#c)"/>
  <rect transform="matrix(0,1,1,0,0,0)" rx="31.2" ry="31.2" height="250" width="250" y="35" x="752" fill="url(#b)"/>
  <g transform="translate(-3.08 733)" fill="#f00">
   <path d="m181 130q0 9.59-1.83 17.9-1.76 8.28-5.27 14.9-3.44 6.59-8.64 11.4-5.2 4.83-12 7.62 3.15 6.88 8.13 12.1 5.05 5.27 11.6 9.67l-8.86 10.4q-7.54-5.35-13.9-12.6-6.3-7.25-10-16.6-1.25 0.146-2.78 0.22-1.46 0.0732-2.78 0.0732-11.9 0-20.7-3.96-8.72-3.96-14.5-11.2-5.71-7.25-8.5-17.4-2.78-10.3-2.78-22.7 0-12.5 2.78-22.6 2.78-10.2 8.57-17.4 5.79-7.18 14.6-11.1 8.79-3.96 20.7-3.96 11.4 0 19.9 3.96 8.64 3.88 14.5 11.1 5.86 7.18 8.79 17.4 3 10.1 3 22.6zm-78.4 0q0 10 1.9 18.1 1.9 7.98 5.79 13.6 3.96 5.57 9.96 8.57 6.08 2.93 14.4 2.93 8.35 0 14.4-2.93 6.08-3 9.96-8.57 3.96-5.64 5.79-13.6 1.83-8.06 1.83-18.1 0-10.1-1.83-18.1-1.83-7.98-5.71-13.5-3.88-5.57-9.89-8.5-6.01-3-14.4-3-8.35 0-14.4 3-6.08 2.93-10 8.5-3.96 5.49-5.86 13.5-1.9 7.98-1.9 18.1z"/>
   <path d="m227 174q1.32 0 2.93-0.146 1.68-0.146 3.22-0.366t2.78-0.513q1.32-0.293 1.98-0.513v10.1q-0.952 0.439-2.42 0.879-1.46 0.439-3.22 0.732-1.76 0.366-3.66 0.513-1.9 0.22-3.74 0.22-4.54 0-8.42-1.17t-6.74-4.03q-2.78-2.86-4.39-7.69-1.61-4.91-1.61-12.3v-46.7h-11.4v-5.93l11.4-5.71 5.71-16.8h7.69v18.5h20.2v10h-20.2v46.7q0 7.1 2.27 10.7 2.34 3.59 7.62 3.59z"/>
  </g>
 </g>
</svg>
